<svg xmlns="http://www.w3.org/2000/svg" viewBox="0 0 1200 600"><defs><linearGradient id="g1" x1="0" y1="0" x2="1" y2="1"><stop offset="0" stop-color="#f8fafc"/><stop offset="1" stop-color="#334155" stop-opacity=".18"/></linearGradient></defs><rect width="1200" height="600" fill="url(#g1)"/><polygon points="387,381 421,439 550,436" fill="#38bdf8" opacity="0.05"/><line x1="387" y1="381" x2="421" y2="439" stroke="#334155" stroke-opacity=".25" stroke-width="1.2"/><polygon points="404,410 438,468 551,439" fill="#38bdf8" opacity="0.09"/><line x1="404" y1="410" x2="438" y2="468" stroke="#334155" stroke-opacity=".25" stroke-width="1.2"/><polygon points="421,439 455,497 552,442" fill="#38bdf8" opacity="0.13"/><line x1="421" y1="439" x2="455" y2="497" stroke="#334155" stroke-opacity=".25" stroke-width="1.2"/><polygon points="438,468 472,526 553,445" fill="#38bdf8" opacity="0.05"/><line x1="438" y1="468" x2="472" y2="526" stroke="#334155" stroke-opacity=".25" stroke-width="1.2"/><polygon points="455,497 489,555 554,448" fill="#38bdf8" opacity="0.09"/><line x1="455" y1="497" x2="489" y2="555" stroke="#334155" stroke-opacity=".25" stroke-width="1.2"/><polygon points="472,526 387,381 555,451" fill="#38bdf8" opacity="0.13"/><line x1="472" y1="526" x2="387" y2="381" stroke="#334155" stroke-opacity=".25" stroke-width="1.2"/><polygon points="489,555 404,410 556,454" fill="#38bdf8" opacity="0.05"/><line x1="489" y1="555" x2="404" y2="410" stroke="#334155" stroke-opacity=".25" stroke-width="1.2"/></svg>